<?xml version="1.0" encoding="UTF-8"?>
<!--
  Numerastra gemstone — Diamond (Heera)
  Style: stylised faceted oval, palette-locked, transparent BG.
-->
<svg xmlns="http://www.w3.org/2000/svg" viewBox="0 0 200 200" role="img" aria-label="Diamond (Heera)">
  <defs>
    <radialGradient id="g-diamond" cx="50%" cy="40%" r="60%">
      <stop offset="0%" stop-color="#FFFFFF"/>
      <stop offset="60%" stop-color="#E0E5EA"/>
      <stop offset="100%" stop-color="#7A8590"/>
    </radialGradient>
    <linearGradient id="s-diamond" x1="30%" y1="20%" x2="60%" y2="50%">
      <stop offset="0%" stop-color="#FFFFFF" stop-opacity="0.85"/>
      <stop offset="100%" stop-color="#FFFFFF" stop-opacity="0"/>
    </linearGradient>
  </defs>

  <!-- Drop shadow ellipse -->
  <ellipse cx="100" cy="160" rx="62" ry="6" fill="#7A5A20" opacity="0.18"/>

  <!-- Main oval body -->
  <ellipse cx="100" cy="100" rx="68" ry="48" fill="url(#g-diamond)" stroke="#7A8590" stroke-width="1.5"/>

  <!-- Facet lines -->
  <g fill="none" stroke="#7A8590" stroke-width="1" opacity="0.55">
    <line x1="100" y1="52" x2="60" y2="85"/>
    <line x1="100" y1="52" x2="140" y2="85"/>
    <line x1="100" y1="52" x2="100" y2="100"/>
    <line x1="60" y1="85" x2="100" y2="100"/>
    <line x1="140" y1="85" x2="100" y2="100"/>
    <line x1="60" y1="115" x2="100" y2="100"/>
    <line x1="140" y1="115" x2="100" y2="100"/>
    <line x1="100" y1="148" x2="100" y2="100"/>
    <line x1="100" y1="148" x2="60" y2="115"/>
    <line x1="100" y1="148" x2="140" y2="115"/>
    <line x1="32" y1="100" x2="60" y2="85"/>
    <line x1="32" y1="100" x2="60" y2="115"/>
    <line x1="168" y1="100" x2="140" y2="85"/>
    <line x1="168" y1="100" x2="140" y2="115"/>
  </g>

  <!-- Specular highlight upper-left -->
  <ellipse cx="78" cy="78" rx="22" ry="14" fill="url(#s-diamond)" opacity="0.7" transform="rotate(-25 78 78)"/>
</svg>
